<?xml version="1.0" encoding="utf-8"?>
<!-- Generator: Adobe Illustrator 16.0.0, SVG Export Plug-In . SVG Version: 6.00 Build 0)  -->
<!DOCTYPE svg PUBLIC "-//W3C//DTD SVG 1.1//EN" "http://www.w3.org/Graphics/SVG/1.1/DTD/svg11.dtd">
<svg version="1.1" id="Layer_1" xmlns="http://www.w3.org/2000/svg" xmlns:xlink="http://www.w3.org/1999/xlink" x="0px" y="0px"
	 width="16px" height="16px" viewBox="0 0 16 16" enable-background="new 0 0 16 16" xml:space="preserve">
<g id="Layer_1_1_">
	<rect fill="#EC008D" width="16" height="16"/>
</g>
<g id="Layer_2">
	<g>
		<g>
			<path fill="#FFFFFF" d="M5.594,12.608c0.189,0.105,0.531,0.401,1.024,0.894c0.426,0.425,0.756,0.717,1.001,0.865
				c0.242,0.152,0.497,0.228,0.764,0.228c0.268,0.001,0.525-0.064,0.774-0.2c0.255-0.136,0.563-0.384,0.927-0.747l0.212-0.213
				L9.33,12.47c-0.289,0.287-0.493,0.459-0.617,0.508c-0.125,0.046-0.241,0.061-0.356,0.033c-0.111-0.027-0.254-0.129-0.43-0.305
				c-0.123-0.122-0.418-0.397-0.887-0.817c-0.309-0.281-0.58-0.479-0.806-0.601c-0.228-0.12-0.451-0.192-0.679-0.213
				c-0.22-0.021-0.455,0.003-0.705,0.069c0.061-0.296,0.084-0.539,0.064-0.737c-0.02-0.192-0.081-0.396-0.191-0.618
				C4.611,9.567,4.436,9.315,4.183,9.036C3.739,8.542,3.431,8.209,3.261,8.039C3.097,7.875,3.001,7.737,2.97,7.631
				C2.942,7.521,2.953,7.409,3.005,7.289c0.047-0.116,0.222-0.326,0.52-0.625l-0.96-0.96L2.353,5.917
				C1.999,6.271,1.766,6.552,1.65,6.764C1.481,7.078,1.397,7.362,1.392,7.611C1.391,7.865,1.472,8.115,1.629,8.37
				c0.157,0.252,0.493,0.637,1.013,1.157c0.32,0.32,0.532,0.553,0.639,0.708c0.143,0.197,0.236,0.386,0.279,0.574
				c0.042,0.186,0.036,0.352-0.013,0.5c-0.051,0.147-0.172,0.323-0.354,0.532l0.964,0.964c0.26-0.234,0.493-0.363,0.709-0.389
				C5.08,12.389,5.318,12.45,5.594,12.608L5.594,12.608z"/>
			<path fill="#FFFFFF" d="M10.311,11.646l0.682,0.249c0.158-0.328,0.24-0.644,0.246-0.952c0.008-0.31-0.052-0.583-0.188-0.827
				c-0.133-0.25-0.363-0.534-0.689-0.859L9.553,8.448L8.422,9.58l1.13,1.131l0.545-0.546c0.22,0.227,0.346,0.457,0.386,0.687
				C10.521,11.08,10.46,11.345,10.311,11.646L10.311,11.646z"/>

				<rect x="5.611" y="5.638" transform="matrix(0.7073 -0.707 0.707 0.7073 -2.6744 6.4164)" fill="#FFFFFF" width="1.6" height="1.6"/>
			<path fill="#FFFFFF" d="M14.346,9.235c0.17-0.315,0.261-0.603,0.263-0.854c0.004-0.25-0.077-0.503-0.237-0.752
				c-0.162-0.259-0.502-0.645-1.019-1.163c-0.319-0.319-0.531-0.552-0.635-0.701c-0.144-0.201-0.236-0.396-0.277-0.582
				c-0.043-0.18-0.039-0.349,0.011-0.496c0.051-0.148,0.164-0.323,0.354-0.532L12.803,4.16l-0.964-0.964
				c-0.261,0.232-0.497,0.36-0.711,0.388c-0.212,0.028-0.456-0.038-0.729-0.188c-0.192-0.11-0.53-0.408-1.021-0.898
				C8.953,2.074,8.624,1.785,8.38,1.638C8.133,1.486,7.877,1.409,7.612,1.405C7.348,1.401,7.089,1.471,6.837,1.604
				C6.588,1.745,6.279,1.991,5.919,2.351L5.703,2.567l0.96,0.959c0.305-0.306,0.521-0.479,0.641-0.531
				C7.432,2.945,7.543,2.934,7.64,2.967c0.103,0.036,0.253,0.152,0.456,0.348C8.75,3.941,9.186,4.328,9.401,4.49
				c0.314,0.226,0.63,0.362,0.932,0.416c0.217,0.033,0.483,0.011,0.813-0.057c-0.069,0.239-0.089,0.466-0.07,0.686
				c0.016,0.211,0.084,0.431,0.194,0.659c0.108,0.225,0.294,0.486,0.557,0.777c0.443,0.484,0.74,0.808,0.906,0.973
				c0.16,0.167,0.256,0.305,0.283,0.414c0.028,0.11,0.014,0.226-0.036,0.354c-0.056,0.122-0.228,0.327-0.516,0.615l0.967,0.968
				l0.216-0.217C13.996,9.729,14.232,9.445,14.346,9.235L14.346,9.235z"/>
		</g>
	</g>
</g>
</svg>
