<?xml version="1.0" encoding="utf-8"?>
<!-- Generator: Adobe Illustrator 16.0.0, SVG Export Plug-In . SVG Version: 6.00 Build 0)  -->
<!DOCTYPE svg PUBLIC "-//W3C//DTD SVG 1.1//EN" "http://www.w3.org/Graphics/SVG/1.1/DTD/svg11.dtd">
<svg version="1.1" id="Layer_1" xmlns="http://www.w3.org/2000/svg" xmlns:xlink="http://www.w3.org/1999/xlink" x="0px" y="0px"
	 width="432px" height="210px" viewBox="0 0 432 210" enable-background="new 0 0 432 210" xml:space="preserve">
<g>
	<path fill="#EC008D" d="M4.341,8.762h28.246c7.55,0,11.327,3.777,11.327,11.327v66.529c0,7.552-3.777,11.327-11.327,11.327H4.341
		V8.762z M34.021,85.041V21.666c0-1.911-0.287-3.129-0.86-3.656c-0.574-0.524-1.77-0.789-3.584-0.789H14.235v72.264h15.342
		c1.814,0,3.011-0.262,3.584-0.789C33.735,88.172,34.021,86.954,34.021,85.041z"/>
	<path fill="#EC008D" d="M68.863,89.485h24.518v8.459H58.969V8.762h33.408v8.459H68.863v30.11h19.213v8.459H68.863V89.485z"/>
	<path fill="#EC008D" d="M182.273,8.762h9.893l-13.047,89.183h-14.912l-10.037-70.687l-9.894,70.687h-14.912L116.318,8.762h9.894
		l10.753,82.301l11.327-82.301h11.757l11.327,82.301L182.273,8.762z"/>
	<path fill="#EC008D" d="M211.379,89.485h24.518v8.459h-34.412V8.762h33.409v8.459h-23.515v30.11h19.212v8.459h-19.212V89.485z"/>
	<path fill="#EC008D" d="M246.648,8.762h28.246c7.551,0,11.328,3.777,11.328,11.327v25.665c0,4.398-1.77,6.739-5.306,7.026
		c3.536,0.574,5.306,2.773,5.306,6.596v27.242c0,7.552-3.777,11.327-11.328,11.327h-28.246V8.762z M276.329,43.747V21.666
		c0-1.911-0.286-3.129-0.86-3.656c-0.574-0.524-1.77-0.789-3.584-0.789h-15.342v30.97h15.342c1.814,0,3.01-0.262,3.584-0.789
		C276.043,46.879,276.329,45.66,276.329,43.747z M276.329,85.041V61.096c0-1.814-0.286-3.011-0.86-3.584
		c-0.574-0.573-1.77-0.86-3.584-0.86h-15.342v32.834h15.342c1.814,0,3.01-0.262,3.584-0.789
		C276.043,88.172,276.329,86.954,276.329,85.041z"/>
</g>
<g>
	<path fill="#FFFFFF" d="M4.01,124.533h27.069c7.235,0,10.855,3.62,10.855,10.855v63.757c0,7.237-3.62,10.854-10.855,10.854H4.01
		V124.533z M32.453,197.634v-60.734c0-1.831-0.275-2.999-0.824-3.504c-0.55-0.502-1.696-0.755-3.435-0.755H13.491v69.253h14.703
		c1.739,0,2.885-0.252,3.435-0.756C32.178,200.635,32.453,199.467,32.453,197.634z"/>
	<path fill="#FFFFFF" d="M65.843,201.894h23.497V210H56.362v-85.467h32.016v8.107H65.843v28.855h18.413v8.106H65.843V201.894z"/>
	<path fill="#FFFFFF" d="M125.75,124.533h9.481L121.491,210h-14.978l-13.741-85.467h9.481l11.68,78.871L125.75,124.533z"/>
	<path fill="#FFFFFF" d="M152.955,201.894h23.497V210h-32.978v-85.467h32.016v8.107h-22.535v28.855h18.413v8.106h-18.413V201.894z"
		/>
	<path fill="#FFFFFF" d="M196.099,201.894h19.649V210h-28.993v-85.467h9.343V201.894z"/>
	<path fill="#FFFFFF" d="M234.16,124.533h14.016c7.234,0,10.854,3.62,10.854,10.855v63.757c0,7.237-3.62,10.854-10.854,10.854
		H234.16c-7.238,0-10.855-3.617-10.855-10.854v-63.757C223.305,128.153,226.922,124.533,234.16,124.533z M249.687,197.634v-60.734
		c0-1.831-0.274-2.999-0.824-3.504c-0.55-0.502-1.696-0.755-3.436-0.755h-8.519c-1.742,0-2.887,0.253-3.436,0.755
		c-0.55,0.505-0.824,1.673-0.824,3.504v60.734c0,1.833,0.274,3.001,0.824,3.504c0.549,0.504,1.693,0.756,3.436,0.756h8.519
		c1.739,0,2.886-0.252,3.436-0.756C249.412,200.635,249.687,199.467,249.687,197.634z"/>
	<path fill="#FFFFFF" d="M273.457,124.533h24.87c7.235,0,10.854,3.62,10.854,10.855v29.404c0,7.238-3.619,10.855-10.854,10.855
		H282.8V210h-9.343V124.533z M299.838,163.282v-26.383c0-1.831-0.253-2.999-0.756-3.504c-0.504-0.502-1.672-0.755-3.504-0.755H282.8
		v34.901h12.778c1.832,0,3-0.252,3.504-0.756C299.585,166.283,299.838,165.115,299.838,163.282z"/>
	<path fill="#FFFFFF" d="M330.341,201.894h23.497V210h-32.979v-85.467h32.016v8.107h-22.534v28.855h18.413v8.106h-18.413V201.894z"
		/>
	<path fill="#FFFFFF" d="M373.484,174.274V210h-9.344v-85.467h24.871c7.234,0,10.855,3.62,10.855,10.855v28.03
		c0,6.506-2.841,10.078-8.52,10.718L404.264,210h-10.168l-12.504-35.726H373.484z M373.484,132.641v33.526h12.779
		c1.831,0,2.999-0.251,3.504-0.755c0.502-0.503,0.756-1.671,0.756-3.504v-25.009c0-1.831-0.254-2.999-0.756-3.504
		c-0.505-0.502-1.673-0.755-3.504-0.755H373.484z"/>
</g>
<g>
	<g>
		<path fill="#FFFFFF" d="M333.156,95.559c1.556,0.871,4.368,3.296,8.422,7.35c3.503,3.504,6.228,5.895,8.239,7.11
			c1.994,1.261,4.085,1.879,6.283,1.883c2.207,0.006,4.313-0.54,6.375-1.646c2.09-1.115,4.625-3.157,7.614-6.147l1.745-1.746
			l-7.949-7.949c-2.367,2.367-4.055,3.79-5.07,4.185c-1.019,0.381-1.984,0.503-2.936,0.267c-0.902-0.222-2.082-1.055-3.529-2.501
			c-1.008-1.008-3.432-3.276-7.294-6.734c-2.534-2.312-4.767-3.926-6.632-4.937c-1.879-0.983-3.709-1.574-5.586-1.743
			c-1.801-0.169-3.743,0.023-5.799,0.569c0.501-2.433,0.696-4.43,0.529-6.069c-0.155-1.575-0.663-3.264-1.574-5.08
			c-0.924-1.826-2.366-3.889-4.445-6.191c-3.663-4.063-6.186-6.8-7.596-8.21c-1.344-1.345-2.131-2.477-2.385-3.353
			c-0.229-0.909-0.14-1.828,0.285-2.816c0.393-0.958,1.824-2.685,4.277-5.139l-7.893-7.892l-1.745,1.746
			c-2.911,2.911-4.823,5.227-5.786,6.967c-1.381,2.58-2.084,4.918-2.119,6.965c-0.003,2.091,0.65,4.146,1.953,6.239
			c1.286,2.084,4.052,5.238,8.336,9.521c2.625,2.625,4.367,4.546,5.248,5.818c1.178,1.626,1.94,3.175,2.307,4.726
			c0.337,1.525,0.283,2.886-0.113,4.118c-0.425,1.212-1.414,2.654-2.906,4.371l7.929,7.93c2.133-1.924,4.057-2.987,5.831-3.194
			C328.927,93.757,330.894,94.264,333.156,95.559L333.156,95.559z M333.156,95.559"/>
		<path fill="#EC008D" d="M371.956,87.642l5.608,2.058c1.31-2.706,1.976-5.302,2.033-7.838c0.06-2.542-0.438-4.791-1.55-6.8
			c-1.093-2.058-2.986-4.395-5.666-7.074l-6.65-6.651l-9.309,9.31l9.301,9.3l4.484-4.483c1.804,1.862,2.844,3.751,3.163,5.642
			C373.681,82.986,373.196,85.164,371.956,87.642L371.956,87.642z M371.956,87.642"/>

			<rect x="333.295" y="38.213" transform="matrix(-0.7071 0.7071 -0.7071 -0.7071 611.8906 -163.8511)" fill="#EC008D" width="13.165" height="13.158"/>
		<path fill="#EC008D" d="M405.151,67.808c1.408-2.592,2.15-4.958,2.17-7.021c0.029-2.059-0.645-4.148-1.963-6.196
			c-1.328-2.124-4.12-5.308-8.377-9.565c-2.623-2.621-4.371-4.538-5.212-5.771c-1.187-1.646-1.95-3.251-2.288-4.775
			c-0.357-1.485-0.327-2.868,0.087-4.084c0.422-1.216,1.354-2.654,2.914-4.367l-0.028,0.029l-7.93-7.93
			c-2.143,1.919-4.082,2.965-5.836,3.188c-1.745,0.238-3.752-0.309-6-1.546c-1.585-0.903-4.369-3.35-8.408-7.389
			c-3.49-3.489-6.2-5.863-8.199-7.066c-2.035-1.25-4.143-1.889-6.319-1.922c-2.177-0.029-4.309,0.542-6.38,1.636
			c-2.049,1.164-4.592,3.188-7.554,6.151l-1.778,1.778l7.893,7.893c2.512-2.512,4.295-3.941,5.28-4.366
			c1.048-0.423,1.969-0.515,2.761-0.233c0.85,0.288,2.084,1.243,3.752,2.856c5.383,5.15,8.967,8.343,10.742,9.67
			c2.587,1.852,5.182,2.977,7.662,3.424c1.787,0.263,3.979,0.084,6.692-0.474c-0.573,1.969-0.733,3.835-0.576,5.636
			c0.115,1.744,0.68,3.551,1.587,5.421c0.893,1.851,2.418,3.993,4.586,6.393c3.646,3.98,6.09,6.649,7.451,8.012
			c1.314,1.377,2.106,2.503,2.332,3.403c0.225,0.903,0.111,1.861-0.305,2.914c-0.455,1.008-1.869,2.697-4.24,5.067l7.953,7.952
			l1.775-1.778C402.274,71.87,404.228,69.535,405.151,67.808L405.151,67.808z M405.151,67.808"/>
	</g>
</g>
<rect x="415.72" y="196.81" fill="#FFFFFF" width="13.166" height="13.159"/>
<rect x="415.736" y="177.581" fill="#EC008D" width="13.165" height="13.157"/>
<g>
</g>
<g>
</g>
<g>
</g>
<g>
</g>
<g>
</g>
<g>
</g>
<g>
</g>
<g>
</g>
<g>
</g>
<g>
</g>
<g>
</g>
<g>
</g>
<g>
</g>
<g>
</g>
<g>
</g>
</svg>
